<?xml version="1.0" standalone="no"?>
<!DOCTYPE svg PUBLIC "-//W3C//DTD SVG 20010904//EN"
 "http://www.w3.org/TR/2001/REC-SVG-20010904/DTD/svg10.dtd">
<svg version="1.0" xmlns="http://www.w3.org/2000/svg"
 width="225.000000pt" height="225.000000pt" viewBox="0 0 225.000000 225.000000"
 preserveAspectRatio="xMidYMid meet">
<metadata>
Created by potrace 1.14, written by Peter Selinger 2001-2017
</metadata>
<g transform="translate(0.000000,225.000000) scale(0.100000,-0.100000)"
fill="#000000" stroke="none">
<path d="M940 2024 c-277 -59 -506 -236 -633 -490 -20 -39 -46 -100 -57 -135
-25 -73 -31 -79 -82 -79 -48 0 -68 -8 -68 -29 0 -9 25 -78 55 -154 30 -75 55
-146 55 -157 0 -11 -20 -83 -45 -160 -47 -146 -51 -165 -36 -174 5 -3 55 -1
112 4 86 8 105 8 111 -4 28 -50 133 -167 195 -216 95 -77 177 -122 288 -159
374 -124 782 6 1018 322 l50 68 61 -6 c34 -3 79 -8 101 -10 74 -9 74 -4 22
163 -26 82 -47 160 -47 173 0 13 25 88 57 166 63 158 62 173 -6 173 -64 0 -79
9 -86 48 -9 50 -84 207 -136 283 -131 193 -355 336 -593 378 -82 15 -257 12
-336 -5z m399 -209 c144 -49 275 -149 362 -277 22 -31 39 -59 39 -62 0 -4 -17
-6 -37 -6 -34 1 -42 6 -78 57 -78 109 -217 201 -360 238 -76 19 -224 19 -300
0 -143 -37 -282 -129 -360 -238 -36 -51 -44 -56 -77 -57 -43 0 -44 1 -21 38
103 163 251 273 433 322 112 30 284 23 399 -15z m-325 -490 c55 -26 66 -58 66
-190 0 -92 -4 -123 -17 -146 -40 -67 -140 -77 -197 -20 l-31 31 0 134 c0 129
1 135 25 161 43 47 97 57 154 30z m324 -5 c33 -20 62 -71 62 -110 0 -17 -6
-20 -40 -20 -35 0 -40 3 -40 24 0 31 -22 48 -57 44 l-28 -3 0 -120 0 -120 28
-3 c16 -2 35 2 43 9 21 17 18 56 -6 62 -15 4 -20 14 -20 36 l0 31 60 0 60 0 0
-55 c0 -72 -20 -119 -62 -145 -61 -37 -143 -18 -173 40 -21 41 -21 249 0 290
30 58 112 77 173 40z m-698 -155 l0 -165 70 0 70 0 0 -40 0 -40 -110 0 -110 0
0 205 0 205 40 0 40 0 0 -165z m994 151 c66 -28 76 -53 76 -198 l0 -130 -34
-34 c-29 -29 -41 -34 -81 -34 -53 0 -97 22 -117 58 -9 17 -13 65 -13 148 0
139 12 168 76 191 45 16 54 16 93 -1z m-963 -630 c80 -74 197 -139 290 -161
82 -19 226 -19 308 0 93 22 210 87 290 161 54 50 76 64 100 64 17 0 31 -4 31
-10 0 -12 -61 -82 -109 -125 -137 -122 -313 -183 -501 -172 -159 9 -275 51
-401 146 -60 46 -139 132 -139 153 0 4 14 8 31 8 24 0 46 -14 100 -64z"/>
<path d="M922 1248 c-8 -8 -12 -46 -12 -114 0 -112 7 -128 57 -122 l28 3 0
120 0 120 -30 3 c-17 2 -36 -3 -43 -10z"/>
<path d="M1550 1231 c-5 -11 -10 -62 -10 -115 0 -99 10 -126 49 -126 34 0 41
21 41 130 0 69 -4 110 -12 118 -18 18 -56 14 -68 -7z"/>
</g>
</svg>
